<?xml version="1.0" encoding="UTF-8" standalone="no"?>
<!-- Created with Inkscape (http://www.inkscape.org/) -->

<svg
   width="210mm"
   height="297mm"
   viewBox="0 0 210 297"
   version="1.1"
   id="svg5"
   inkscape:version="1.1 (c68e22c387, 2021-05-23)"
   sodipodi:docname="TheCaregiverAct_logo.svg"
   xmlns:inkscape="http://www.inkscape.org/namespaces/inkscape"
   xmlns:sodipodi="http://sodipodi.sourceforge.net/DTD/sodipodi-0.dtd"
   xmlns="http://www.w3.org/2000/svg"
   xmlns:svg="http://www.w3.org/2000/svg">
  <sodipodi:namedview
     id="namedview7"
     pagecolor="#505050"
     bordercolor="#ffffff"
     borderopacity="1"
     inkscape:pageshadow="0"
     inkscape:pageopacity="0"
     inkscape:pagecheckerboard="1"
     inkscape:document-units="mm"
     showgrid="false"
     inkscape:zoom="0.74118965"
     inkscape:cx="452.65068"
     inkscape:cy="205.75031"
     inkscape:window-width="1920"
     inkscape:window-height="1017"
     inkscape:window-x="1352"
     inkscape:window-y="305"
     inkscape:window-maximized="1"
     inkscape:current-layer="layer1" />
  <defs
     id="defs2" />
  <g
     inkscape:label="Layer 1"
     inkscape:groupmode="layer"
     id="layer1">
    <path
       style="fill:#e54f3e;fill-opacity:1;stroke-width:1.21882"
       d="m 99.332978,192.54338 c -3.08921,-3.08915 -2.248,-6.30992 3.188332,-12.20765 6.90979,-7.4962 8.9498,-8.47118 12.65099,-6.04605 4.55869,2.98698 3.66064,6.43761 -3.55272,13.65097 -6.87049,6.8705 -9.16087,7.72851 -12.286602,4.60273 z m 13.929352,-0.33351 c 0,-1.58682 4.36448,-5.16874 5.23599,-4.29718 1.20734,1.20733 -1.46129,5.32707 -3.45063,5.32707 -0.98198,0 -1.78536,-0.46347 -1.78536,-1.02989 z m 9.99429,-8.96441 c -0.8044,-0.80439 -1.46258,-2.79641 -1.46258,-4.42662 0,-1.78145 -1.62377,-4.49549 -4.06957,-6.80218 -2.93484,-2.76794 -4.26111,-5.26617 -4.7565,-8.9597 -0.60291,-4.49494 -0.44039,-4.9895 1.32724,-4.04207 1.10778,0.59374 5.44209,4.6505 9.63176,9.01498 8.14752,8.48749 9.70081,13.03987 5.26013,15.41649 -3.0401,1.62699 -4.13982,1.58977 -5.93048,-0.20085 z m -33.151822,-0.71562 c -2.40692,-0.82273 -3.61486,-2.74178 -3.6378,-5.7793 -0.023,-3.19483 14.480712,-17.64389 17.686972,-17.61901 4.31284,0.0323 6.03947,2.20608 5.59632,7.04176 -0.20407,2.22511 -11.029572,13.56156 -14.731862,15.42694 -1.69696,0.85498 -3.90811,1.27335 -4.91363,0.92961 z m 31.608492,-21.72332 c -7.46309,-7.35428 -13.70216,-12.57452 -14.46514,-12.10299 -0.90105,0.55688 -0.52847,1.86293 1.13455,3.97711 2.98647,3.79673 2.60109,4.45814 -1.65482,2.84004 -2.04614,-0.77791 -3.21611,-2.14062 -3.21611,-3.74596 0,-3.86509 -5.355632,-8.50647 -9.815512,-8.50647 -2.6865,0 -4.85352,-1.09323 -7.24791,-3.65645 -4.74968,-5.08454 -8.59238,-4.77424 -15.09408,1.2188 -2.90899,2.68138 -6.10405,4.87526 -7.10017,4.87526 -2.24054,0 -14.57929,-12.77868 -17.09857,-17.70825 -1.01782,-1.9916 -2.48266,-6.60636 -3.25518,-10.25507 -5.020685,-23.71259 17.9887,-47.25868 41.86779,-42.844355 7.7416,1.431119 16.323572,5.486547 17.367552,8.20704 0.49659,1.29412 -4.077032,6.731147 -14.563902,17.313095 -8.40835,8.48459 -15.64709,16.63987 -16.08615,18.12281 -1.57553,5.32219 4.57081,12.46396 10.76788,12.51182 2.77729,0.023 5.71558,-2.13246 14.09574,-10.33282 5.822822,-5.69801 11.105672,-10.35998 11.739572,-10.35998 0.63391,0 10.60775,9.46681 22.16413,21.03733 20.73139,20.75677 23.03149,23.9891 19.54898,27.47161 -3.13932,3.13932 -6.54633,1.23511 -18.09999,-10.11618 -6.48189,-6.36833 -12.41057,-11.57876 -13.1748,-11.57876 -3.34906,0 -0.59797,3.88139 10.79865,15.23521 9.50457,9.46896 12.18816,12.87602 12.18816,15.47421 0,3.21482 -2.79406,5.85512 -6.19609,5.85512 -0.81463,0 -7.38666,-5.81947 -14.60458,-12.93217 z m -45.421802,9.68201 c -0.44684,-0.44684 -0.81255,-2.24413 -0.81255,-3.99388 0,-3.92829 15.17275,-19.56995 18.98325,-19.56995 3.17323,0 5.39312,2.24593 5.39312,5.45642 0,3.79751 -15.69251,18.91991 -19.63323,18.91991 -1.71493,0 -3.48366,-0.36576 -3.93059,-0.8125 z m -11.6808,-12.89919 c -1.33871,-3.5329 1.34664,-8.34003 7.73588,-13.84818 4.95928,-4.27535 8.89319,-5.19398 11.42035,-2.66678 2.86527,2.86523 1.43752,6.56775 -4.97453,12.90015 -7.28568,7.19517 -12.3371,8.48275 -14.1817,3.61481 z m 65.751042,-31.99396 c -11.13027,-11.06077 -20.77645,-20.11054 -21.43588,-20.11054 -0.65947,0 -6.11239,4.93625 -12.117542,10.96938 -8.39794,8.43705 -11.68223,10.96937 -14.22661,10.96937 -3.38172,0 -7.10276,-3.76711 -7.10276,-7.19075 0,-0.9752 8.36417,-10.20252 18.58699,-20.505132 C 116.36987,77.24974 121.01148,74.402565 135.194,74.499764 c 7.0631,0.04837 10.52548,0.727513 15.19086,2.979566 19.25393,9.294234 27.05481,31.45522 17.63146,50.08803 -2.58161,5.10457 -14.14899,18.1385 -16.09766,18.1385 -0.72604,0 -10.42662,-9.04972 -21.55693,-20.11048 z"
       id="path1492"
       inkscape:export-filename="C:\Users\mrroe\OneDrive\Documents\TheCaregiverAct\Media\Logo\red.png"
       inkscape:export-xdpi="96"
       inkscape:export-ydpi="96" />
  </g>
</svg>
